<svg xmlns:xlink="http://www.w3.org/1999/xlink" id="wave" style="transform:rotate(0deg); transition: 0.3s" viewBox="0 0 1440 490" version="1.1" xmlns="http://www.w3.org/2000/svg"><defs><linearGradient id="sw-gradient-0" x1="0" x2="0" y1="1" y2="0"><stop stop-color="rgba(255, 81.127, 25.284, 1)" offset="0%"/><stop stop-color="rgba(255, 175.574, 0, 1)" offset="100%"/></linearGradient></defs><path style="transform:translate(0, 0px); opacity:1" fill="url(#sw-gradient-0)" d="M0,245L16,261.3C32,278,64,310,96,318.5C128,327,160,310,192,261.3C224,212,256,131,288,138.8C320,147,352,245,384,253.2C416,261,448,180,480,171.5C512,163,544,229,576,245C608,261,640,229,672,220.5C704,212,736,229,768,236.8C800,245,832,245,864,261.3C896,278,928,310,960,318.5C992,327,1024,310,1056,310.3C1088,310,1120,327,1152,351.2C1184,376,1216,408,1248,375.7C1280,343,1312,245,1344,204.2C1376,163,1408,180,1440,220.5C1472,261,1504,327,1536,294C1568,261,1600,131,1632,114.3C1664,98,1696,196,1728,253.2C1760,310,1792,327,1824,343C1856,359,1888,376,1920,318.5C1952,261,1984,131,2016,65.3C2048,0,2080,0,2112,32.7C2144,65,2176,131,2208,187.8C2240,245,2272,294,2288,318.5L2304,343L2304,490L2288,490C2272,490,2240,490,2208,490C2176,490,2144,490,2112,490C2080,490,2048,490,2016,490C1984,490,1952,490,1920,490C1888,490,1856,490,1824,490C1792,490,1760,490,1728,490C1696,490,1664,490,1632,490C1600,490,1568,490,1536,490C1504,490,1472,490,1440,490C1408,490,1376,490,1344,490C1312,490,1280,490,1248,490C1216,490,1184,490,1152,490C1120,490,1088,490,1056,490C1024,490,992,490,960,490C928,490,896,490,864,490C832,490,800,490,768,490C736,490,704,490,672,490C640,490,608,490,576,490C544,490,512,490,480,490C448,490,416,490,384,490C352,490,320,490,288,490C256,490,224,490,192,490C160,490,128,490,96,490C64,490,32,490,16,490L0,490Z"/><defs><linearGradient id="sw-gradient-1" x1="0" x2="0" y1="1" y2="0"><stop stop-color="rgba(243, 106, 62, 1)" offset="0%"/><stop stop-color="rgba(255, 179, 11, 1)" offset="100%"/></linearGradient></defs><path style="transform:translate(0, 50px); opacity:0.9" fill="url(#sw-gradient-1)" d="M0,294L16,302.2C32,310,64,327,96,326.7C128,327,160,310,192,302.2C224,294,256,294,288,294C320,294,352,294,384,277.7C416,261,448,229,480,196C512,163,544,131,576,155.2C608,180,640,261,672,318.5C704,376,736,408,768,416.5C800,425,832,408,864,351.2C896,294,928,196,960,130.7C992,65,1024,33,1056,24.5C1088,16,1120,33,1152,98C1184,163,1216,278,1248,334.8C1280,392,1312,392,1344,359.3C1376,327,1408,261,1440,228.7C1472,196,1504,196,1536,228.7C1568,261,1600,327,1632,302.2C1664,278,1696,163,1728,138.8C1760,114,1792,180,1824,187.8C1856,196,1888,147,1920,163.3C1952,180,1984,261,2016,294C2048,327,2080,310,2112,261.3C2144,212,2176,131,2208,147C2240,163,2272,278,2288,334.8L2304,392L2304,490L2288,490C2272,490,2240,490,2208,490C2176,490,2144,490,2112,490C2080,490,2048,490,2016,490C1984,490,1952,490,1920,490C1888,490,1856,490,1824,490C1792,490,1760,490,1728,490C1696,490,1664,490,1632,490C1600,490,1568,490,1536,490C1504,490,1472,490,1440,490C1408,490,1376,490,1344,490C1312,490,1280,490,1248,490C1216,490,1184,490,1152,490C1120,490,1088,490,1056,490C1024,490,992,490,960,490C928,490,896,490,864,490C832,490,800,490,768,490C736,490,704,490,672,490C640,490,608,490,576,490C544,490,512,490,480,490C448,490,416,490,384,490C352,490,320,490,288,490C256,490,224,490,192,490C160,490,128,490,96,490C64,490,32,490,16,490L0,490Z"/></svg>
